<?xml version="1.0" standalone="no"?>
<!DOCTYPE svg PUBLIC "-//W3C//DTD SVG 20010904//EN"
 "http://www.w3.org/TR/2001/REC-SVG-20010904/DTD/svg10.dtd">
<svg version="1.0" xmlns="http://www.w3.org/2000/svg"
 width="676.000000pt" height="675.000000pt" viewBox="0 0 676.000000 675.000000"
 preserveAspectRatio="xMidYMid meet">

<g transform="translate(0.000000,675.000000) scale(0.100000,-0.100000)"
fill="#000000" stroke="none">
<path id="Avaloria" d="M1375 6629 c-621 -20 -1149 -38 -1171 -38 l-41 -1 -8 -850 c-4 -468
-6 -852 -4 -854 2 -2 151 74 331 170 l328 174 485 45 485 45 337 206 c186 114
344 212 351 219 7 6 48 200 92 441 44 236 82 441 86 457 l6 27 -74 -1 c-40 -1
-581 -19 -1203 -40z"/>
<path id="Draxandor" d="M2845 6583 c4 -49 8 -89 10 -91 1 -2 65 -14 141 -28 77 -14 264 -59
417 -100 l278 -75 69 51 70 50 276 -59 c152 -33 280 -63 284 -68 4 -4 31 -80
60 -168 29 -88 55 -163 57 -168 4 -6 308 218 356 262 14 14 21 56 37 216 11
109 18 200 17 202 -3 2 -1994 63 -2071 63 -4 0 -5 -39 -1 -87z"/>
<path id="Brimtalon" d="M5781 6639 c-376 -11 -686 -20 -687 -22 -2 -1 15 -125 36 -274 l39
-271 147 -379 c81 -208 150 -382 154 -386 4 -4 131 -1 283 8 152 8 279 15 282
15 2 0 93 -109 202 -241 190 -233 198 -241 205 -213 4 16 53 407 108 869 55
462 103 857 106 878 l6 37 -99 -1 c-54 -1 -406 -10 -782 -20z"/>
<path id="Fellspire" d="M2786 6288 c-2 -7 -39 -152 -80 -323 -42 -170 -80 -313 -84 -317 -4
-4 -167 -103 -362 -221 l-355 -214 -3 -241 -2 -241 65 -358 c37 -197 69 -368
72 -381 l5 -22 210 2 210 3 133 282 133 281 11 416 11 416 201 303 c111 166
203 303 204 305 1 1 105 -24 231 -57 125 -33 229 -59 230 -58 0 1 22 47 48
101 26 55 57 114 71 131 l24 32 -52 12 c-300 70 -521 114 -668 131 -96 11
-191 23 -211 26 -27 4 -39 2 -42 -8z"/>
<path id="Kragmere" d="M3896 6137 c-18 -34 -64 -117 -100 -185 l-67 -122 71 -110 70 -110
-30 -237 c-16 -131 -26 -241 -22 -245 4 -4 105 -61 224 -128 l218 -121 477 16
c263 8 484 15 492 15 11 0 12 40 6 242 l-7 243 -125 285 c-69 157 -128 288
-132 291 -3 4 -132 -64 -286 -151 -245 -138 -282 -156 -292 -142 -7 8 -59 98
-115 200 -113 202 -101 190 -260 275 l-87 47 -35 -63z"/>
<path id="Vargren" d="M3217 5827 c-35 -45 -139 -180 -230 -299 l-167 -217 0 -390 0 -390
-165 -361 -165 -360 101 -232 c56 -128 105 -236 108 -241 4 -4 164 2 357 13
192 11 353 20 358 20 5 0 5 147 1 338 l-7 337 71 231 c56 183 89 320 157 650
l86 419 -9 184 -8 183 -160 75 c-88 41 -184 85 -212 98 l-53 24 -63 -82z"/>
<path id="Skyreach" d="M1227 5094 l-388 -34 -337 -196 c-185 -107 -341 -199 -346 -204 -5
-5 -5 -242 -1 -544 l7 -536 174 -166 173 -165 275 215 275 216 383 161 c211
89 386 165 390 168 4 3 -33 157 -83 341 l-90 335 7 223 6 222 -28 -1 c-16 -1
-204 -17 -417 -35z"/>
<path id="Eldoria" d="M5414 5033 c3 -49 8 -135 12 -192 6 -102 10 -116 215 -723 115 -341
209 -621 209 -623 0 -2 -146 -139 -325 -305 -179 -166 -325 -302 -325 -303 0
-1 14 -51 30 -112 l31 -110 -116 -110 c-64 -60 -115 -113 -115 -117 0 -3 36
-36 80 -73 l81 -66 255 16 255 16 377 156 c207 85 380 159 385 162 4 4 21 203
37 442 27 387 30 486 30 907 l0 473 -280 309 c-155 171 -286 310 -293 310 -7
0 -127 7 -267 15 -140 8 -261 15 -269 15 -10 0 -12 -18 -7 -87z"/>
<path id="Ironveil" d="M3825 4888 c-3 -13 -46 -213 -95 -446 l-90 -424 139 -256 138 -257
211 -182 210 -183 301 -50 301 -50 358 251 c196 138 363 256 369 263 10 9 -5
66 -76 276 -80 240 -314 864 -331 883 -4 4 -230 1 -504 -8 l-497 -16 -214 111
c-206 107 -215 110 -220 88z"/>
<path id="Iskarr" d="M1655 3648 l-370 -150 -302 -205 c-167 -112 -303 -205 -303 -207 0
-2 -16 -178 -35 -392 -28 -309 -32 -391 -22 -400 6 -6 159 -104 340 -218 l327
-207 427 383 427 383 189 269 189 268 -96 280 c-52 155 -97 282 -99 284 -3 3
-298 65 -301 64 -1 -1 -167 -69 -371 -152z"/>
<path id="Zephyros" d="M3620 3487 c0 -25 -31 -311 -33 -314 -2 -2 -190 -21 -418 -43 -274
-26 -417 -44 -425 -52 -36 -37 -401 -524 -397 -530 2 -5 213 -192 468 -418
l465 -410 409 255 410 254 303 92 c167 50 311 96 321 103 19 11 207 268 202
274 -2 2 -142 41 -312 87 l-308 84 -240 245 c-209 214 -253 253 -342 310 -57
36 -103 64 -103 63z"/>
<path id="Lithmoor" d="M130 2907 c0 -217 -3 -921 -7 -1565 l-6 -1172 322 0 322 0 310 221
c170 122 311 224 314 228 5 9 -130 885 -139 899 -3 5 -193 157 -421 337 -228
180 -417 331 -420 335 -2 4 20 182 51 396 l55 389 -39 35 c-22 19 -107 92
-190 163 l-152 128 0 -394z"/>
<path id="Skarrhold" d="M6210 2275 c-195 -84 -354 -157 -353 -161 1 -5 29 -58 63 -119 34
-60 62 -114 63 -118 1 -4 -33 -38 -77 -75 l-78 -67 -84 -233 -84 -233 140
-184 140 -184 0 -265 0 -266 23 -5 c155 -39 652 -153 654 -151 4 3 -46 2209
-50 2212 -1 1 -162 -67 -357 -151z"/>
<path id="Valinthor" d="M1821 2045 c-200 -178 -374 -334 -387 -346 l-24 -24 65 -479 c35
-263 67 -481 69 -484 3 -2 198 -64 433 -137 235 -72 438 -135 450 -139 18 -6
55 30 267 258 l246 264 35 293 35 294 -413 411 -412 412 -364 -323z"/>
<path id="Thalindor" d="M4490 2081 l-285 -108 -430 -252 c-236 -139 -434 -256 -438 -261 -5
-4 -35 -111 -68 -236 -33 -126 -62 -237 -65 -246 -4 -14 33 -43 171 -133 l177
-116 306 -44 c168 -24 309 -42 312 -40 4 2 67 97 140 211 74 113 144 210 155
215 11 5 94 26 185 48 101 24 279 80 460 144 l295 104 133 222 133 221 -62 86
-62 86 -56 -6 c-31 -3 -114 -11 -184 -16 l-128 -11 -200 121 c-110 66 -201
120 -202 120 -1 -1 -130 -50 -287 -109z"/>
<path id="Rivermarsh" d="M5037 894 l-418 -75 -245 -210 -244 -210 -291 31 -291 31 -245 135
-246 136 -292 -292 -291 -291 -447 160 -448 161 -179 -127 c-99 -69 -180 -129
-180 -132 0 -3 78 -37 173 -74 l172 -68 1853 21 1853 21 232 83 232 84 -3 208
-4 208 -125 138 c-68 76 -130 138 -136 137 -7 -1 -200 -34 -430 -75z"/>
</g>
</svg>
